<svg version="1.1" id="Nintendo" xmlns="http://www.w3.org/2000/svg" xmlns:xlink="http://www.w3.org/1999/xlink" x="0px" y="0px" viewBox="0 0 7530.2 1855.1" style="enable-background:new 0 0 7530.2 1855.1;" xml:space="preserve"><style type="text/css">.logo{fill:#939598}</style><g><polygon class="logo" points="747,489.4 1019.1,489.4 1395.5,1098.4 1395.3,489.4 1665.3,489.4 1665.3,1362.7 1395.7,1362.7 1017.3,753.7 1017.3,1362.7 746.9,1362.7"/><polygon class="logo" points="3133.1,579.2 3395.9,579.2 3395.9,696.7 3538.1,696.7 3538.1,783.1 3395.9,783.1 3396.1,1362.7 3133.1,1362.7 3133.2,783.1 2990.4,783.1 2990.4,696.9 3133.3,696.8"/><polygon class="logo" points="1815.6,781.9 2078.2,782 2078.2,1362.7 1815.6,1362.7"/><polygon class="logo" points="1815,489.2 2078.2,489.2 2078.2,667.7 1815,667.7"/><path class="logo" d="M6523.2,1067.7c0,0-0.1,87.8-0.1,123c0,92.6-54.7,130.8-107.3,130.8c-52.7,0-107.6-38.2-107.6-130.8 c0-35.2,0.1-125.2,0.1-125.2s0.2-85.9,0.2-121.1c0-92.2,55-130.1,107.3-130.1c52.4,0,107.3,37.9,107.3,130.1 c0,35.2-0.1,100.3,0.2,123.6L6523.2,1067.7L6523.2,1067.7z M6417.7,742.3c-212,0-383.8,146-383.8,326.1 c0,180.1,171.9,326.1,383.8,326.1c212,0,383.8-146,383.8-326.1S6629.7,742.3,6417.7,742.3L6417.7,742.3z"/><path class="logo" d="M5689.2,489.4h259.2v873.3h-259.6c0,0-0.1-28.2-0.1-33.6c-100.5,63.1-213.9,63-302.2,21.8 c-23.7-11-179.6-85.8-179.6-287.9c0-153.3,144.6-320.7,333.9-304.1c62.3,5.5,106.6,28.2,148.6,51.8 C5689.2,676.3,5689.2,489.4,5689.2,489.4L5689.2,489.4z M5691.1,1069.4c0,0,0-72.8,0-103.8c0-89.8-62-112.7-102.8-112.7 c-41.8,0-103,22.9-103,112.7c0,29.8,0.1,103.5,0.1,103.5s-0.1,72.4-0.1,103.3c0,89.7,61.2,113.2,102.9,113.2 c40.9,0,103-23.5,103-113.2C5691.2,1135.1,5691.1,1069.4,5691.1,1069.4L5691.1,1069.4z"/><path class="logo" d="M2693,755.1c98.2-2.8,297.4,61.5,296,291.4c-0.2,40.8-0.1,316-0.1,316H2728c0,0,0-345.1,0-381.4 c0-50.6-48.4-106.9-120-106.9c-71.5,0-124.7,56.3-124.7,106.9c0,24.8,0.3,381.4,0.3,381.4h-260.7l-0.1-580.7l260.9-0.2 c0,0-0.3,46.7,0,61.1C2533.9,794.8,2606.2,757.6,2693,755.1L2693,755.1z"/><path class="logo" d="M4827.2,755.1c98.2-2.8,297.4,61.5,296,291.4c-0.2,40.8-0.1,316-0.1,316h-260.9c0,0,0-345.1,0-381.4 c0-50.6-48.4-106.9-120-106.9c-71.5,0-124.7,56.3-124.7,106.9c0,24.8,0.3,381.4,0.3,381.4h-260.7l0.2-580.7l260.6-0.2 c0,0-0.3,46.7,0,61.1C4668.1,794.8,4740.5,757.6,4827.2,755.1L4827.2,755.1z"/><path class="logo" d="M3782.7,984.4c-0.4-50.9,0.7-84.9,17.4-113.9c20.5-35.8,58.2-52.8,92.4-53h-0.1c34.2,0.2,71.9,17.2,92.4,53 c16.7,29.1,17.4,63.1,17,114L3782.7,984.4L3782.7,984.4z M4000.9,1159.5c0,0,0.2,2.6,0.2,35.2c0,106.2-69.9,129.8-108.7,129.8 c-38.8,0-109.9-23.6-109.9-129.8c0-31.8,0.2-119.9,0.2-119.9s494.7,0.2,494.7-0.1c0-180.1-173.9-329.3-387.5-329.3 c-213.6,0-386.7,146-386.7,326.1s173.1,326,386.7,326c177.2,0,326.9-101.1,372.6-238.2L4000.9,1159.5L4000.9,1159.5z"/><path class="logo" d="M6842.4,554.4c42.5,0,63.6,14.4,63.6,42.9c0,19.6-12.2,34.4-32.5,39.5l33.3,66.5h-40.3l-28.5-61h-17.7v61H6784 V554.4H6842.4L6842.4,554.4z M6839.1,496.2c-74.2,0-134.4,60.2-134.4,134.4c0,74.2,60.2,134.4,134.4,134.4 c74.2,0,134.4-60.2,134.4-134.4C6973.5,556.4,6913.3,496.2,6839.1,496.2L6839.1,496.2z M6947.8,630.7c0,60-48.7,108.7-108.7,108.7 s-108.7-48.7-108.7-108.7c0-60,48.7-108.7,108.7-108.7S6947.8,570.6,6947.8,630.7L6947.8,630.7z M6820.3,620.5h17.7 c20.7,0,30.7-6.3,30.7-21.1c0-15.5-10.7-22.2-32.5-22.2h-15.9L6820.3,620.5L6820.3,620.5L6820.3,620.5z"/><path class="logo" d="M984.9,1855.1C394.5,1854.9,0,1436.5,0,929.2l0,0C0,421.9,395.4-1.3,984,0h5562.2 c588.6-1.3,984,421.9,984,929.2l0,0c0,507.3-394.5,925.7-984.9,925.9L984.9,1855.1L984.9,1855.1z M986.7,228.2 C519.3,229.1,232.4,541.5,232.4,928l0,0c0,386.4,285.1,701.4,754.3,699.7h5556.8c469.2,1.6,754.4-313.3,754.4-699.7l0,0 c0-386.4-286.9-698.8-754.3-699.7L986.7,228.2L986.7,228.2z"/></g></svg>